D:\school\WTK\thesis\model\3dpredictsim\Results\batch_windlass\Pog_s1_tmt_aCst_d00_k1000_WL20_ig24_pas_GRF.mot
nRows=17
nColumns=19

name D:\school\WTK\thesis\model\3dpredictsim\Results\batch_windlass\Pog_s1_tmt_aCst_d00_k1000_WL20_ig24_pas_GRF.mot
datacolumns 19
datarows 17
range 0.5381090734 0.7103039769
endheader
time 	ground_force_vx	ground_force_vy	ground_force_vz	ground_force_px	ground_force_py	ground_force_pz	1_ground_force_vx	1_ground_force_vy	1_ground_force_vz	1_ground_force_px	1_ground_force_py	1_ground_force_pz	ground_torque_x	ground_torque_y	ground_torque_z	1_ground_torque_x	1_ground_torque_y	1_ground_torque_z
        0.5381090734	       92.7434397695	      465.7078322032	        1.3938032380	        0.3489875549	        0.0000000000	        0.0332140854	      -74.9212746428	       54.8438987610	      -20.8926282030	        0.8106916080	        0.0000000000	       -0.0434378918	        0.0000000000	        0.0000000000	        0.0000000000	        0.0000000000	        0.0000000000	        0.0000000000	
        0.5488712548	       73.9894023765	      375.6764309745	        5.8225638308	        0.3538571523	        0.0000000000	        0.0313337526	     -120.0818810137	      110.4986662303	      -45.2641551440	        0.8217922444	        0.0000000000	       -0.0411102382	        0.0000000000	        0.0000000000	        0.0000000000	        0.0000000000	        0.0000000000	        0.0000000000	
        0.5596334363	       42.6188030780	      274.0932402542	       15.1567265642	        0.3618488196	        0.0000000000	        0.0277556251	     -103.2711154320	      220.5335104198	      -68.6339397770	        0.8309543740	        0.0000000000	       -0.0402880457	        0.0000000000	        0.0000000000	        0.0000000000	        0.0000000000	        0.0000000000	        0.0000000000	
        0.5703956178	       16.0609905062	      179.6863372642	       15.6814005724	        0.3753480715	        0.0000000000	        0.0204687803	      -54.6470997651	      447.5208412411	      -12.4259276625	        0.8421113915	        0.0000000000	       -0.0413421883	        0.0000000000	        0.0000000000	        0.0000000000	        0.0000000000	        0.0000000000	        0.0000000000	
        0.5811577992	       -0.3868817155	      140.5586000642	       13.3908359330	        0.3797737392	        0.0000000000	        0.0174174609	      -67.0787976913	      664.4844427611	       10.1688420990	        0.8498828814	        0.0000000000	       -0.0430515345	        0.0000000000	        0.0000000000	        0.0000000000	        0.0000000000	        0.0000000000	        0.0000000000	
        0.5919199807	       -4.4821122110	      102.9601154726	       10.5994460809	        0.3800899346	        0.0000000000	        0.0172842913	      -97.4294890468	      816.3645937754	       16.4993574977	        0.8564618110	        0.0000000000	       -0.0440455056	        0.0000000000	        0.0000000000	        0.0000000000	        0.0000000000	        0.0000000000	        0.0000000000	
        0.6026821622	      -12.6569497133	       58.0546485555	        7.4911655773	        0.3797275043	        0.0000000000	        0.0172105936	     -115.4683373596	      908.0638700090	       16.8265224566	        0.8630623144	        0.0000000000	       -0.0440710434	        0.0000000000	        0.0000000000	        0.0000000000	        0.0000000000	        0.0000000000	        0.0000000000	
        0.6134443436	       -7.6810536076	        9.7966713487	        1.1234576630	        0.0000000000	        0.0000000000	        0.0000000000	     -120.9282928387	      941.5316184299	       17.2341931715	        0.8708370458	        0.0000000000	       -0.0435672566	        0.0000000000	        0.0000000000	        0.0000000000	        0.0000000000	        0.0000000000	        0.0000000000	
        0.6242065251	        0.0031404672	       -0.0028287667	        0.0001241095	        0.0000000000	        0.0000000000	        0.0000000000	     -111.9774240507	      913.3344364285	       16.0424018833	        0.8759903599	        0.0000000000	       -0.0430232449	        0.0000000000	        0.0000000000	        0.0000000000	        0.0000000000	        0.0000000000	        0.0000000000	
        0.6349687066	        0.0000861060	       -0.0000658203	        0.0000060085	        0.0000000000	        0.0000000000	        0.0000000000	      -94.6385472122	      852.5808454490	       15.9998869156	        0.8793656132	        0.0000000000	       -0.0426504651	        0.0000000000	        0.0000000000	        0.0000000000	        0.0000000000	        0.0000000000	        0.0000000000	
        0.6457308880	        0.0001223463	       -0.0000832653	        0.0000093416	        0.0000000000	        0.0000000000	        0.0000000000	      -78.7912717024	      789.3948316149	       15.8640714091	        0.8824683896	        0.0000000000	       -0.0424248960	        0.0000000000	        0.0000000000	        0.0000000000	        0.0000000000	        0.0000000000	        0.0000000000	
        0.6564930695	        0.0020146573	       -0.0012549482	        0.0001618627	        0.0000000000	        0.0000000000	        0.0000000000	      -65.8635805600	      736.6972788649	       16.1787900024	        0.8856183523	        0.0000000000	       -0.0422953770	        0.0000000000	        0.0000000000	        0.0000000000	        0.0000000000	        0.0000000000	        0.0000000000	
        0.6672552510	       -0.0030973971	        0.0017950206	       -0.0002589870	        0.0000000000	        0.0000000000	        0.0000000000	      -54.8513913163	      695.1419716332	       16.9078656187	        0.8889383436	        0.0000000000	       -0.0422297657	        0.0000000000	        0.0000000000	        0.0000000000	        0.0000000000	        0.0000000000	        0.0000000000	
        0.6780174325	       -0.0385355847	        0.0210063219	       -0.0033549162	        0.0000000000	        0.0000000000	        0.0000000000	      -45.1222837606	      662.1227853842	       17.8093752204	        0.8926264284	        0.0000000000	       -0.0422067287	        0.0000000000	        0.0000000000	        0.0000000000	        0.0000000000	        0.0000000000	        0.0000000000	
        0.6887796139	       -0.0250038004	        0.0129124633	       -0.0022701117	        0.0000000000	        0.0000000000	        0.0000000000	      -36.7438814775	      636.3356482439	       19.1311978893	        0.8970896355	        0.0000000000	       -0.0421806845	        0.0000000000	        0.0000000000	        0.0000000000	        0.0000000000	        0.0000000000	        0.0000000000	
        0.6995417954	       -0.0168196451	        0.0082757667	       -0.0015940298	        0.0000000000	        0.0000000000	        0.0000000000	      -30.8895436182	      616.9907766618	       20.1949170347	        0.9022316606	        0.0000000000	       -0.0421206218	        0.0000000000	        0.0000000000	        0.0000000000	        0.0000000000	        0.0000000000	        0.0000000000	
        0.7103039769	       -0.0140627638	        0.0066276822	       -0.0013833135	        0.0000000000	        0.0000000000	        0.0000000000	      -26.7125183929	      603.0662458926	       20.5493968961	        0.9075799505	        0.0000000000	       -0.0420317529	        0.0000000000	        0.0000000000	        0.0000000000	        0.0000000000	        0.0000000000	        0.0000000000	
